<svg version="1.1" id="Layer_1" xmlns="http://www.w3.org/2000/svg" xmlns:xlink="http://www.w3.org/1999/xlink" x="0px" y="0px" width="182px" height="64px" style="max-width: 100%; height: auto;" viewBox="0 0 182 64" enable-background="new 0 0 182 64" xml:space="preserve">
<g>
	<g>
		<path id="XMLID_00000149342058271333705300000004703984541728692922_" fill="#22456D" d="M13.498,49.348
			c-1.046,0.032-1.94,0.032-2.681,0.022c-0.742-0.011-1.384-0.152-1.94-0.414c-0.556-0.262-1.046-0.72-1.504-1.384
			c-0.458-0.654-0.926-1.625-1.417-2.889c-0.992-2.419-1.995-5.057-3.03-7.912c-1.036-2.855-1.809-5.101-2.333-6.735
			c-0.522-1.635-0.784-2.463-0.784-2.496c0.033,0,0.229-0.065,0.599-0.208c0.371-0.141,0.752-0.25,1.155-0.349
			c0.403-0.098,0.883-0.142,1.461-0.142c0.577,0,1.123,0.087,1.624,0.272c0.501,0.186,1.035,0.523,1.569,1.036
			c0.534,0.513,0.981,1.188,1.341,2.039c0.905,2.582,2.223,6.462,3.956,11.628c2.027-6.049,3.411-10.103,4.12-12.162
			c0.36-0.829,0.807-1.494,1.341-2.017c0.534-0.523,1.057-0.861,1.569-1.035c0.512-0.163,1.046-0.25,1.624-0.272
			c0.578-0.011,1.058,0.032,1.438,0.142c0.382,0.109,0.774,0.229,1.156,0.349c0.381,0.119,0.588,0.185,0.621,0.185
			c-2.583,7.477-4.992,13.907-7.215,19.29c-0.054,0.109-0.108,0.252-0.163,0.415c-0.218,0.523-0.382,0.904-0.49,1.156
			c-0.109,0.249-0.262,0.511-0.458,0.783c-0.196,0.273-0.414,0.458-0.665,0.556C14.151,49.305,13.857,49.348,13.498,49.348"></path>
		<path id="XMLID_00000071540009157034250550000016011672323225793956_" fill="#22456D" d="M31.753,38.309
			c0.087,0.959,0.196,1.722,0.349,2.289c0.152,0.566,0.425,1.121,0.829,1.667c0.403,0.556,0.992,0.948,1.798,1.199
			c0.795,0.25,1.809,0.369,3.052,0.369c0.959,0,1.787-0.151,2.475-0.457c0.686-0.306,1.199-0.644,1.525-1.035
			c0.327-0.382,0.588-0.85,0.785-1.406c0.196-0.545,0.305-0.959,0.327-1.231c0.021-0.271,0.043-0.577,0.043-0.905v-0.436v-0.665
			c0-0.174-0.01-0.445-0.043-0.807c-0.033-0.359-0.077-0.664-0.142-0.926c-0.065-0.262-0.164-0.567-0.284-0.927
			c-0.12-0.359-0.273-0.664-0.458-0.926s-0.415-0.534-0.697-0.807c-0.284-0.272-0.611-0.501-0.97-0.675
			c-0.36-0.175-0.785-0.327-1.297-0.437c-0.513-0.109-1.068-0.163-1.667-0.163c-1.101,0-2.039,0.151-2.801,0.456
			c-0.773,0.306-1.33,0.655-1.689,1.048c-0.359,0.402-0.632,0.926-0.829,1.568c-0.195,0.643-0.293,1.146-0.305,1.504
			c-0.011,0.36-0.011,0.808,0.022,1.362v0.339H31.753z M25.617,37.938c-0.033-0.163-0.044-0.382-0.065-0.665
			c-0.011-0.272,0.021-0.807,0.119-1.602c0.098-0.796,0.251-1.559,0.48-2.289c0.218-0.73,0.599-1.537,1.155-2.408
			c0.545-0.883,1.231-1.636,2.038-2.267c0.806-0.632,1.907-1.166,3.281-1.592c1.373-0.424,2.942-0.643,4.697-0.643
			c1.243,0,2.376,0.099,3.422,0.294c1.046,0.195,1.94,0.458,2.703,0.785c0.751,0.327,1.427,0.741,2.017,1.243
			c0.588,0.49,1.079,0.98,1.46,1.46c0.381,0.479,0.708,1.045,0.97,1.711c0.261,0.652,0.458,1.231,0.599,1.71
			c0.131,0.479,0.229,1.047,0.283,1.689c0.055,0.643,0.088,1.133,0.098,1.46c0.011,0.328,0.011,0.753,0,1.254
			c-0.01,0.512-0.021,0.796-0.021,0.85c0,0.438-0.011,0.84-0.044,1.2c-0.033,0.359-0.108,0.925-0.25,1.688
			c-0.142,0.774-0.327,1.46-0.578,2.06c-0.25,0.601-0.643,1.265-1.177,1.984c-0.534,0.719-1.166,1.317-1.896,1.798
			c-0.73,0.479-1.678,0.883-2.844,1.221c-1.167,0.326-2.485,0.49-3.935,0.49c-1.515,0-2.855-0.099-4.043-0.283
			c-1.177-0.196-2.18-0.446-3.009-0.763c-0.828-0.316-1.547-0.752-2.169-1.296c-0.621-0.546-1.122-1.113-1.503-1.689
			c-0.381-0.578-0.698-1.287-0.948-2.148c-0.251-0.85-0.437-1.666-0.557-2.452C25.802,39.932,25.693,39.006,25.617,37.938"></path>
		<path id="XMLID_00000001659586156653197200000008103814403003543190_" fill="#22456D" d="M54.716,41.6V26.592
			c0.959-0.055,1.787-0.043,2.474,0.022c0.687,0.065,1.33,0.229,1.94,0.469c0.6,0.25,1.057,0.654,1.362,1.22
			c0.305,0.567,0.436,1.275,0.414,2.126v8.904v0.087v2.06c0.415,2.038,2.278,2.834,5.602,2.387c1.7-0.218,2.702-0.381,3.008-0.49
			c-0.087-0.47-0.12-1.013-0.12-1.646V30.429c-0.033-0.851,0.108-1.559,0.392-2.126c0.294-0.566,0.741-0.97,1.362-1.22
			c0.621-0.252,1.265-0.403,1.962-0.469c0.687-0.065,1.515-0.077,2.474-0.022v20.076c0,1.787-2.867,2.745-8.621,2.888
			C58.803,49.773,54.716,47.125,54.716,41.6"></path>
		<path id="XMLID_00000157278247274187861590000008510635958198036411_" fill="#E84B53" d="M88.437,37.851v5.853
			c0.436,0.142,0.916,0.251,1.417,0.326c0.512,0.088,1.144,0.153,1.919,0.207c0.773,0.055,1.482-0.021,2.146-0.25
			c0.653-0.218,1.286-0.534,1.896-0.949c0.599-0.412,1.09-1.067,1.438-1.983c0.36-0.904,0.535-1.993,0.535-3.259
			c0-1.045-0.175-1.95-0.512-2.724c-0.35-0.773-0.742-1.362-1.199-1.776c-0.458-0.414-1.047-0.72-1.787-0.926
			c-0.742-0.208-1.363-0.328-1.854-0.371c-0.49-0.044-1.111-0.022-1.853,0.065c-0.742,0.087-1.198,0.141-1.362,0.163
			c-0.164,0.033-0.415,0.087-0.742,0.164h-0.043C88.415,32.412,88.415,34.221,88.437,37.851 M88.437,58.46
			c-0.49-0.36-1.144-0.567-1.962-0.644c-0.806-0.065-1.493-0.109-2.06-0.109c-0.566,0-1.068-0.293-1.503-0.883
			c-0.437-0.588-0.666-1.558-0.666-2.909V29.6c0.033-0.021,0.164-0.185,0.393-0.479c0.229-0.283,0.447-0.512,0.643-0.675
			c0.196-0.164,0.545-0.404,1.068-0.698c0.523-0.306,1.101-0.534,1.733-0.698c0.632-0.163,1.481-0.316,2.561-0.457
			c1.079-0.142,2.277-0.208,3.629-0.208c4.229,0,7.27,0.916,9.112,2.747c1.842,1.831,2.758,4.872,2.758,9.133
			c0,2.06-0.328,3.847-0.993,5.362c-0.654,1.515-1.547,2.669-2.658,3.486c-1.112,0.807-2.301,1.407-3.542,1.777
			c-1.254,0.371-2.573,0.555-3.979,0.555c-1.896,0-3.412-0.195-4.534-0.576V58.46z"></path>
		<path id="XMLID_00000127743412814338447160000013107512430375040652_" fill="#E84B53" d="M125.088,26.472
			c-0.032,0.055-0.02,0.349,0.023,0.861c0.043,0.523,0.032,1.025-0.023,1.504c-0.053,0.479-0.163,0.992-0.326,1.548
			c-0.164,0.545-0.501,0.991-1.013,1.318c-0.514,0.328-1.167,0.49-1.963,0.49c-1.154,0-2.048,0.044-2.681,0.12
			c-0.632,0.087-1.199,0.284-1.689,0.622c-0.49,0.327-0.828,0.796-0.991,1.406c-0.164,0.6-0.25,1.428-0.25,2.475v13.188
			c-0.49-0.36-1.146-0.644-1.964-0.851c-0.806-0.207-1.492-0.359-2.059-0.479c-0.566-0.109-1.069-0.437-1.504-0.97
			c-0.436-0.534-0.654-1.309-0.654-2.333V34.341c0-0.163,0.012-0.392,0.022-0.675c0.01-0.284,0.065-0.687,0.141-1.2
			c0.088-0.512,0.219-1.014,0.416-1.526c0.195-0.512,0.479-1.035,0.871-1.591c0.38-0.545,0.851-1.035,1.405-1.438
			c0.546-0.415,1.254-0.753,2.125-1.024c0.86-0.272,1.831-0.415,2.911-0.415h4.075h1.438h0.48H125.088z"></path>
		<path id="XMLID_00000008862316157891644910000004856820695513534883_" fill="#E84B53" d="M142.069,38.472
			c-0.109,0.142-0.262,0.306-0.479,0.489c-0.208,0.197-0.664,0.448-1.385,0.764c-0.72,0.316-1.461,0.48-2.223,0.48
			c-1.341,0-2.442,0.163-3.281,0.49c-0.839,0.326-1.253,0.796-1.253,1.405c0,0.72,0.305,1.254,0.905,1.613
			c0.599,0.358,1.809,0.534,3.629,0.534c0.741,0,1.318-0.012,1.712-0.022c0.392-0.01,0.772-0.12,1.11-0.305
			c0.338-0.195,0.577-0.37,0.72-0.534c0.142-0.163,0.25-0.513,0.348-1.046c0.099-0.535,0.154-1.046,0.164-1.548
			C142.059,40.28,142.069,39.519,142.069,38.472 M129.001,32.248c0-0.087-0.01-0.195-0.043-0.326
			c-0.032-0.142-0.032-0.404-0.022-0.807c0.013-0.403,0.056-0.774,0.12-1.133c0.066-0.36,0.207-0.763,0.415-1.221
			c0.207-0.458,0.479-0.839,0.827-1.155c0.339-0.316,0.808-0.588,1.407-0.807c0.588-0.218,1.284-0.327,2.081-0.327h1.155
			c0.719-0.032,1.45-0.032,2.202,0c0.751,0.033,1.514,0.065,2.267,0.099c0.752,0.043,1.492,0.163,2.201,0.348
			c0.72,0.196,1.395,0.425,2.038,0.698c0.643,0.272,1.242,0.665,1.776,1.178c0.533,0.512,1.004,1.089,1.406,1.753
			c0.403,0.654,0.708,1.472,0.927,2.432c0.218,0.958,0.326,2.049,0.326,3.258v0.283v0.283v0.327v0.284v0.327v0.326v0.371v0.413
			v0.415v0.489v0.654v0.327c0,1.123-0.12,2.147-0.371,3.074c-0.25,0.927-0.556,1.667-0.926,2.244
			c-0.371,0.579-0.829,1.09-1.384,1.526c-0.556,0.436-1.068,0.762-1.549,0.971c-0.479,0.206-1.034,0.37-1.666,0.489
			c-0.633,0.12-1.123,0.196-1.461,0.229c-0.337,0.033-0.753,0.043-1.221,0.043h-5.689c-0.087,0-0.206-0.01-0.37-0.021
			s-0.479-0.055-0.927-0.12c-0.457-0.065-0.882-0.174-1.297-0.305c-0.414-0.142-0.871-0.359-1.384-0.676s-0.938-0.687-1.297-1.112
			c-0.359-0.425-0.653-0.98-0.905-1.667c-0.25-0.687-0.369-1.46-0.369-2.312c0-1.513,0.195-2.778,0.576-3.813
			c0.382-1.035,0.971-1.831,1.756-2.387c0.784-0.567,1.655-0.96,2.615-1.178c0.959-0.218,2.124-0.327,3.51-0.327
			c2.387,0,4.021-0.163,4.882-0.478c0.86-0.317,1.297-0.808,1.297-1.463c0-0.937-0.904-1.568-2.702-1.895
			c-1.798-0.328-3.706-0.403-5.733-0.207C131.454,31.573,129.961,31.856,129.001,32.248"></path>
		<path id="XMLID_00000108284482757449137880000016938179377633687687_" fill="#22456D" d="M155.343,38.123
			c3.216,1.536,6.604,2.801,10.147,3.771c1.418-1.635,2.735-3.303,3.935-5.024c-3.15,0.056-6.299-0.163-9.427-0.62
			c-0.796-0.12-1.636,0.033-2.388,0.348c-0.752,0.394-1.525,0.773-2.311,1.133C155.081,37.795,155.104,38.058,155.343,38.123"></path>
		<path id="XMLID_00000127742558195202055740000014423101356615789229_" fill="#22456D" d="M160.521,47.507
			c-2.158,0.196-4.338,0.282-6.55,0.272c-0.196,0.447-0.403,0.894-0.6,1.341c1.242,0.425,2.495,0.806,3.76,1.165
			C158.296,49.38,159.431,48.455,160.521,47.507"></path>
		<path id="XMLID_00000035496044686762749290000004730357294432050074_" fill="#E84B53" d="M158.079,51.005
			c0.872,0.218,3.335,0.044,4.208,0.229c1.405,1.482,2.047,2.801,3.628,4.186c0.632-0.262,1.265-0.535,1.886-0.808
			c-0.523-1.809-1.014-3.618-1.471-5.438c1.809-1.689,3.498-3.443,5.046-5.264c2.942,2.07,6.168,3.944,9.655,5.558
			c0.186,0.131,0.546,0.011,0.534-0.185c0.186-0.773,0.36-1.547,0.523-2.32c0.066-0.731-0.143-1.418-0.687-1.92
			c-2.125-1.95-4.077-3.989-5.874-6.114c-0.24-0.425-0.229-0.915,0.022-1.351c1.372-2.397,2.561-4.839,3.552-7.314
			c0.261-0.653,0.293-1.351,0.119-2.015c-0.131-0.512-0.271-1.025-0.402-1.525c-0.109-0.404-0.589-0.567-0.937-0.317
			c-0.426,0.317-0.872,0.621-1.31,0.926c-0.577,0.393-1.035,0.938-1.329,1.57c-0.947,2.06-2.037,4.098-3.28,6.092
			c-1.537,2.495-3.291,4.926-5.254,7.27C164.411,45.142,161.022,48.41,158.079,51.005"></path>
		<path id="XMLID_00000067217428760079477550000011076859282845740222_" fill="#E84B53" d="M157.447,52.617
			c-0.501,0.012-0.991,0.143-1.439,0.394c-2.43,1.384-9.699,5.743-24.204,6.55c2.103,0.447,17.513,0.676,29.164-7.009
			C161.403,52.552,158.526,52.596,157.447,52.617"></path>
		<path id="XMLID_00000055705702504271401420000010351291672762998693_" fill="#E84B53" d="M145.044,60.509
			c-3.41,0.283-9.743,2.921-25.96,0.861c-0.054,0.271,17.438,3.705,30.517-1.156C147.235,60.214,145.044,60.509,145.044,60.509"></path>
		<path id="XMLID_00000178199067482786539390000004669014310382538671_" fill="#575756" d="M92.85,58.568
			c0,0.971-0.467,1.46-1.393,1.46c-0.916,0-1.374-0.489-1.374-1.46c0-0.925,0.458-1.396,1.374-1.396
			C92.383,57.173,92.85,57.644,92.85,58.568"></path>
		<path id="XMLID_00000151545234285082355250000005849048983739810212_" fill="#575756" d="M101.362,51.43v0.065
			c0.142,1.222-0.284,1.831-1.254,1.831c-0.118,0-0.305,0-0.576-0.011c-0.272,0-0.469-0.01-0.6-0.01s-0.317,0.01-0.546,0.043
			c-0.229,0.022-0.414,0.065-0.533,0.12c-0.131,0.053-0.272,0.131-0.426,0.249c-0.164,0.11-0.282,0.24-0.359,0.404
			c-0.087,0.163-0.152,0.359-0.218,0.621c-0.055,0.251-0.088,0.534-0.088,0.85c0,0.306,0.023,0.578,0.077,0.807
			s0.119,0.425,0.195,0.59c0.077,0.163,0.196,0.294,0.36,0.402c0.163,0.108,0.316,0.196,0.479,0.262
			c0.152,0.065,0.371,0.108,0.643,0.141c0.272,0.033,0.513,0.056,0.742,0.056c0.228,0.01,0.522,0.01,0.894,0.01
			c0.151,0,0.271,0.022,0.382,0.056l0.282,0.142l0.208,0.218l0.131,0.273l0.065,0.294l0.021,0.294l-0.011,0.283l-0.01,0.239
			l-0.045,0.271c-0.436,0.056-0.816,0.099-1.166,0.121c-0.338,0.022-0.763,0.032-1.274,0.01c-0.502-0.01-0.948-0.065-1.329-0.162
			c-0.383-0.098-0.775-0.24-1.188-0.446c-0.415-0.208-0.752-0.47-1.025-0.796c-0.272-0.316-0.49-0.741-0.664-1.265
			s-0.262-1.123-0.262-1.799c0-3.531,2.158-4.959,6.485-4.261C100.928,51.364,101.111,51.397,101.362,51.43"></path>
		<path id="XMLID_00000161620433493026565510000006447189556485942158_" fill="#575756" d="M104.6,55.68
			c0.033,0.372,0.077,0.666,0.131,0.883c0.054,0.219,0.163,0.427,0.315,0.644c0.154,0.208,0.383,0.359,0.688,0.457
			c0.306,0.099,0.697,0.143,1.165,0.143c0.372,0,0.688-0.055,0.95-0.175c0.261-0.118,0.456-0.249,0.587-0.393
			c0.131-0.141,0.229-0.327,0.305-0.533c0.077-0.207,0.121-0.371,0.131-0.479l0.011-0.35v-0.163v-0.251c0-0.064,0-0.173-0.011-0.304
			c-0.01-0.131-0.033-0.252-0.054-0.36c-0.022-0.098-0.066-0.219-0.11-0.359c-0.042-0.131-0.107-0.262-0.173-0.359l-0.273-0.306
			c-0.107-0.108-0.229-0.196-0.369-0.262c-0.143-0.065-0.306-0.121-0.502-0.164c-0.196-0.042-0.403-0.064-0.644-0.064
			c-0.426,0-0.784,0.055-1.079,0.173c-0.294,0.121-0.512,0.252-0.653,0.405c-0.142,0.152-0.239,0.349-0.316,0.599
			c-0.076,0.25-0.108,0.437-0.12,0.577c-0.011,0.143,0,0.317,0.012,0.523v0.119H104.6z M102.245,55.539l-0.021-0.25
			c-0.011-0.109,0.011-0.317,0.043-0.622c0.033-0.305,0.098-0.6,0.186-0.884c0.086-0.282,0.229-0.588,0.447-0.926
			c0.207-0.338,0.468-0.632,0.784-0.871c0.305-0.239,0.73-0.447,1.255-0.61c0.522-0.163,1.133-0.251,1.808-0.251
			c0.48,0,0.916,0.032,1.319,0.109c0.403,0.076,0.74,0.174,1.034,0.305c0.295,0.13,0.546,0.283,0.775,0.479
			c0.229,0.187,0.413,0.381,0.567,0.566c0.15,0.186,0.271,0.403,0.369,0.655c0.098,0.249,0.174,0.468,0.229,0.652
			c0.055,0.187,0.087,0.404,0.11,0.654c0.021,0.251,0.032,0.437,0.043,0.556c0.011,0.131,0.011,0.284,0,0.479
			c-0.011,0.196-0.011,0.307-0.011,0.327c0,0.176,0,0.327-0.012,0.458c-0.011,0.131-0.044,0.349-0.098,0.654
			c-0.054,0.295-0.131,0.557-0.219,0.795c-0.098,0.229-0.249,0.491-0.445,0.764c-0.209,0.271-0.447,0.501-0.73,0.686
			c-0.284,0.187-0.644,0.339-1.091,0.469c-0.446,0.131-0.948,0.186-1.515,0.186c-0.577,0-1.101-0.033-1.547-0.108
			c-0.457-0.077-0.84-0.175-1.155-0.294c-0.316-0.121-0.589-0.283-0.829-0.502c-0.24-0.207-0.436-0.425-0.577-0.654
			c-0.152-0.218-0.272-0.49-0.359-0.828c-0.1-0.327-0.164-0.644-0.218-0.938C102.311,56.302,102.278,55.941,102.245,55.539"></path>
		<path id="XMLID_00000025438192678345289940000014117776836213300631_" fill="#575756" d="M115.76,53.479
			c0.032,0.187,0.043,0.393,0.043,0.633v4.338c0.013,0.327-0.043,0.599-0.163,0.816c-0.119,0.219-0.294,0.371-0.522,0.47
			c-0.229,0.098-0.48,0.151-0.742,0.185c-0.262,0.022-0.577,0.032-0.947,0.01v-7.704c0-0.687,1.101-1.057,3.313-1.111
			c0.338-0.011,0.632-0.011,0.894,0.011c0.261,0.011,0.457,0.032,0.599,0.044c0.143,0.011,0.283,0.054,0.414,0.131
			c0.142,0.064,0.219,0.108,0.252,0.13l0.195,0.174l0.163,0.164l0.219-0.239c0.055-0.044,0.163-0.109,0.326-0.185
			c0.164-0.077,0.403-0.131,0.72-0.164c0.306-0.022,0.709-0.044,1.188-0.044c0.567,0,1.079,0.087,1.516,0.25
			c0.436,0.164,0.773,0.371,1.003,0.601c0.229,0.229,0.413,0.5,0.555,0.796c0.142,0.294,0.229,0.533,0.272,0.72
			c0.045,0.184,0.065,0.348,0.065,0.5l-0.01,5.94c-0.372,0.021-0.688,0.021-0.949-0.013c-0.262-0.021-0.512-0.085-0.74-0.184
			c-0.229-0.098-0.404-0.251-0.523-0.469s-0.163-0.49-0.163-0.817v-4.175l-0.012-0.163l-0.065-0.239l-0.163-0.283
			c-0.076-0.065-0.187-0.131-0.337-0.196c-0.154-0.065-0.339-0.098-0.567-0.098c-0.48,0-0.828,0.032-1.08,0.098v6.539h-2.484v-6.137
			c-0.021-0.327-0.402-0.49-1.144-0.49C116.436,53.283,116.054,53.349,115.76,53.479"></path>
	</g>
	<g>
		<g>
			<g>
				<path fill="#5E5F5F" d="M56.089,9.481c0.164,1.057,0.861,1.667,1.995,1.667c1.177,0,1.721-0.544,1.721-1.405
					c0-0.992-0.544-1.406-2.125-1.864c-2.278-0.654-3.084-1.45-3.084-2.91c0-1.787,1.406-2.822,3.324-2.822
					c2.354,0,3.346,1.275,3.466,2.833h-1.766c-0.131-0.85-0.578-1.45-1.722-1.45c-1.002,0-1.503,0.48-1.503,1.265
					c0,0.828,0.512,1.089,2.016,1.537c2.561,0.762,3.215,1.766,3.215,3.204c0,1.667-1.123,3.019-3.629,3.019
					c-2.18,0-3.552-1.123-3.684-3.073H56.089z"></path>
				<path fill="#5E5F5F" d="M69.342,10.222c0,1.046,0.011,1.831,0.033,2.213h-1.689c-0.043-0.23-0.054-0.589-0.065-1.014
					c-0.425,0.806-1.134,1.145-2.136,1.145c-1.406,0-2.344-0.829-2.344-2.649V4.827h1.733v4.785c0,0.861,0.294,1.492,1.221,1.492
					c0.915,0,1.503-0.587,1.503-2.038v-4.24h1.754v5.395H69.342z"></path>
				<path fill="#5E5F5F" d="M77.102,10.561c0,0.512,0.044,1.383,0.109,1.875h-1.537c-0.055-0.24-0.109-0.687-0.109-1.003
					c-0.306,0.665-1.036,1.134-2.18,1.134c-1.875,0-2.507-1.2-2.507-2.311c0-1.297,0.883-2.463,3.542-2.463c0.316,0,0.632,0,0.981,0
					v-0.61c0-0.654-0.196-1.221-1.221-1.221c-0.959,0-1.231,0.468-1.318,1.123h-1.689c0.087-1.222,0.817-2.376,3.041-2.376
					c1.722,0,2.899,0.621,2.899,2.452v3.401H77.102z M75.446,8.936c-0.284,0-0.61,0-1.014,0c-1.526,0-1.81,0.622-1.81,1.188
					c0,0.589,0.36,1.089,1.177,1.089c1.297,0,1.646-0.861,1.646-2.125V8.936z"></path>
				<path fill="#5E5F5F" d="M88.448,10.561c0,0.512,0.043,1.383,0.109,1.875H87.02c-0.055-0.24-0.109-0.687-0.109-1.003
					c-0.306,0.665-1.036,1.134-2.18,1.134c-1.874,0-2.507-1.2-2.507-2.311c0-1.297,0.883-2.463,3.542-2.463c0.316,0,0.632,0,0.981,0
					v-0.61c0-0.654-0.196-1.221-1.221-1.221c-0.959,0-1.232,0.468-1.319,1.123h-1.689c0.087-1.222,0.817-2.376,3.041-2.376
					c1.722,0,2.899,0.621,2.899,2.452v3.401H88.448z M86.791,8.936c-0.284,0-0.61,0-1.014,0c-1.526,0-1.809,0.622-1.809,1.188
					c0,0.589,0.359,1.089,1.177,1.089c1.296,0,1.646-0.861,1.646-2.125V8.936z"></path>
				<path fill="#5E5F5F" d="M96.753,11.749c0,2.354-0.96,3.771-3.478,3.771c-2.375,0-3.084-1.286-3.182-2.397h1.722
					c0.141,0.676,0.687,1.035,1.548,1.035c1.385,0,1.688-0.851,1.688-2.321v-0.523c-0.381,0.762-1.09,1.079-2.104,1.079
					c-1.809,0-2.997-1.45-2.997-3.804c0-2.43,1.429-3.88,3.15-3.88c1.198,0,1.722,0.458,1.906,0.926
					c0-0.229,0.055-0.621,0.077-0.773h1.689c-0.012,0.371-0.032,1.21-0.032,2.256v4.632H96.753z M91.76,8.544
					c0,1.493,0.623,2.387,1.668,2.387c1.242,0,1.678-0.741,1.678-2.409c0-1.569-0.272-2.386-1.623-2.386
					C92.47,6.136,91.76,6.92,91.76,8.544z"></path>
				<path fill="#5E5F5F" d="M100.001,9.012c0,1.134,0.446,2.169,1.646,2.169c1.013,0,1.329-0.665,1.449-1.014h1.712
					c-0.329,1.155-1.168,2.408-3.216,2.408c-2.409,0-3.357-1.733-3.357-3.945c0-1.874,0.938-3.945,3.434-3.945
					c2.495,0,3.237,1.831,3.237,3.716c0,0.087-0.012,0.512-0.022,0.61H100.001z M102.67,1.634l1.482,2.213h-1.657l-0.806-1.222
					l-0.762,1.222H99.27l1.483-2.213H102.67z M103.205,7.846c-0.032-1.002-0.437-1.82-1.559-1.82c-1.266,0-1.57,1.067-1.613,1.82
					H103.205z"></path>
				<path fill="#5E5F5F" d="M106.398,7.215c0-1.57-0.012-2.039-0.033-2.376h1.7c0.021,0.142,0.064,0.708,0.064,1.057
					c0.317-0.621,1.025-1.199,2.158-1.199c1.536,0,2.409,0.938,2.409,2.791v4.958h-1.745V7.802c0-0.937-0.261-1.656-1.273-1.656
					c-1.058,0-1.537,0.687-1.537,2.104v4.185h-1.743V7.215L106.398,7.215z"></path>
				<path fill="#5E5F5F" d="M120.796,9.863c-0.252,1.515-1.212,2.713-3.227,2.713c-2.268,0-3.346-1.428-3.346-3.934
					c0-2.333,1.252-3.946,3.454-3.946c2.332,0,3.052,1.658,3.118,2.78h-1.745c-0.098-0.741-0.469-1.417-1.416-1.417
					c-1.167,0-1.646,1.047-1.646,2.54c0,1.831,0.589,2.648,1.613,2.648c0.926,0,1.265-0.589,1.461-1.374h1.733V9.863z"></path>
				<path fill="#5E5F5F" d="M122.19,1.678h1.743v1.765h-1.743V1.678z M122.19,4.838h1.743v7.597h-1.743V4.838z"></path>
				<path fill="#5E5F5F" d="M131.683,10.561c0,0.512,0.043,1.383,0.108,1.875h-1.536c-0.056-0.24-0.108-0.687-0.108-1.003
					c-0.306,0.665-1.035,1.134-2.181,1.134c-1.874,0-2.506-1.2-2.506-2.311c0-1.297,0.883-2.463,3.541-2.463c0.316,0,0.633,0,0.98,0
					v-0.61c0-0.654-0.195-1.221-1.22-1.221c-0.959,0-1.23,0.468-1.318,1.123h-1.69c0.087-1.222,0.818-2.376,3.042-2.376
					c1.722,0,2.897,0.621,2.897,2.452v3.401H131.683z M130.036,8.936c-0.283,0-0.609,0-1.013,0c-1.525,0-1.81,0.622-1.81,1.188
					c0,0.589,0.36,1.089,1.177,1.089c1.298,0,1.646-0.861,1.646-2.125V8.936z"></path>
				<path fill="#5E5F5F" d="M133.775,7.182V4.948h1.699v2.234H133.775z M133.775,12.435V10.2h1.699v2.235H133.775z"></path>
			</g>
		</g>
	</g>
</g>
</svg>